<?xml version="1.0" standalone="no"?><!DOCTYPE svg PUBLIC "-//W3C//DTD SVG 1.1//EN" "http://www.w3.org/Graphics/SVG/1.1/DTD/svg11.dtd"><svg t="1689037212693" class="icon" viewBox="0 0 1024 1024" version="1.1" xmlns="http://www.w3.org/2000/svg" p-id="1461" xmlns:xlink="http://www.w3.org/1999/xlink" width="128" height="128"><path d="M728.864 497.056c-12.48-3.712-29.152-6.752-22.624-22.944 14.144-35.136 15.744-73.792 0.416-95.424-28.736-40.576-99.36-29.472-189.44 7.808 0-0.064-28.288 12.224-21.056-9.952 13.856-44.032 11.776-80.896-9.792-102.208-48.896-48.352-178.88 1.824-290.368 111.936C112.48 468.8 64 556.256 64 631.84c0 144.608 187.68 232.544 371.296 232.544 240.704 0 395.776-139.104 395.776-248.832C831.072 549.28 779.616 512.608 728.864 497.056zM435.808 812.576c-146.528 14.272-272.992-51.168-282.496-146.208-9.504-95.04 101.568-183.68 248.096-197.984 146.528-14.304 273.024 51.136 282.496 146.144C693.376 709.6 582.336 798.24 435.808 812.576z" p-id="1462"></path><path d="M897.632 235.136c-60.096-62.496-148.704-86.304-230.496-69.984l-0.032 0c-18.944 3.808-30.976 21.28-26.944 38.976 4.032 17.728 22.656 29.056 41.568 25.28 58.176-11.584 121.152 5.376 163.872 49.76 42.656 44.384 54.272 104.928 35.968 157.984l0 0c-5.952 17.28 4.128 35.776 22.592 41.376 18.368 5.568 38.144-3.872 44.096-21.12 0-0.032 0-0.096 0-0.096C973.92 382.656 957.728 297.568 897.632 235.136" p-id="1463"></path><path d="M807.904 317.088c-29.024-31.2-71.872-43.04-111.456-34.88-16.16 3.328-26.464 18.752-23.008 34.432 3.456 15.616 19.36 25.632 35.488 22.24l0 0.032c19.328-3.968 40.32 1.824 54.496 17.024 14.208 15.264 18.016 36.032 11.936 54.272l0.032 0c-5.056 15.232 3.52 31.584 19.264 36.512 15.744 4.864 32.608-3.424 37.696-18.688C844.768 390.752 836.992 348.288 807.904 317.088" p-id="1464"></path><path d="M484.928 504.064C413.12 485.76 331.968 520.8 300.8 582.72c-31.744 63.168-1.056 133.28 71.488 156.192 75.136 23.712 163.68-12.64 194.464-80.8C597.12 591.488 559.2 522.848 484.928 504.064zM430.08 662.528c-14.592 22.336-45.824 32.128-69.376 21.824-23.2-10.144-30.048-36.096-15.456-57.856 14.432-21.696 44.608-31.36 67.968-21.952C436.864 614.208 444.416 639.968 430.08 662.528zM478.176 603.328c-5.28 8.64-16.928 12.832-26.08 9.216-8.992-3.552-11.808-13.248-6.688-21.728 5.248-8.448 16.48-12.608 25.44-9.184C479.936 584.8 483.2 594.592 478.176 603.328z" p-id="1465"></path></svg>